# 3ds Max Wavefront OBJ Exporter v0.97b - (c)2007 guruware
# File Created: 02.03.2016 15:50:04

mtllib laserblast001.mtl

#
# object laser
#

v  -2.7694 0.0000 0.4927
v  2.7678 0.0000 0.4927
v  2.7678 0.0000 -0.2880
v  -2.7694 0.0000 -0.2880
v  -2.7694 0.3903 0.1023
v  2.7678 0.3903 0.1023
v  2.7678 -0.3903 0.1023
v  -2.7694 -0.3903 0.1023
# 8 vertices

vn 0.0000 1.0000 -0.0000
vn 0.0000 -0.0000 -1.0000
# 2 vertex normals

vt 0.1358 0.0157 0.0000
vt 0.9862 0.8661 0.0000
vt 0.8663 0.9860 0.0000
vt 0.0159 0.1356 0.0000
# 4 texture coords

g laser
usemtl wire_227153153
s 1
f 1/1/1 2/2/1 3/3/1 4/4/1 
f 5/1/2 6/2/2 7/3/2 8/4/2 
# 2 polygons

