# 3ds Max Wavefront OBJ Exporter v0.97b - (c)2007 guruware
# File Created: 24.02.2016 21:59:25

mtllib sharkmissile001.mtl

#
# object sharkmissile
#

v  4.4652 0.7875 0.0239
v  4.4652 0.3938 -0.6581
v  -1.0013 0.3938 -0.6581
v  -1.0013 0.7875 0.0239
v  4.4652 0.3938 -1.6115
v  4.4652 -0.3938 -1.6115
v  -1.0013 -0.3938 -0.6581
v  4.4652 -0.3938 -0.6581
v  4.4652 -0.7875 0.0239
v  -1.0013 -0.7875 0.0239
v  4.4652 -1.6132 0.5007
v  4.4652 -1.2195 1.1827
v  -1.0013 -0.3938 0.7059
v  4.4652 -0.3938 0.7059
v  4.4652 0.3938 0.7059
v  -1.0013 0.3938 0.7059
v  4.4652 1.2195 1.1827
v  4.4652 1.6132 0.5007
v  -3.6830 0.3938 -0.6581
v  -3.6830 0.7875 0.0239
v  -3.6830 -0.3938 -0.6581
v  -3.6830 -0.7875 0.0239
v  -3.6830 -0.3938 0.7059
v  -3.6830 0.3938 0.7059
v  -4.0611 0.3498 -0.5820
v  -4.0611 0.6997 0.0239
v  -4.0611 -0.3498 -0.5820
v  -4.0611 -0.6997 0.0239
v  -4.0611 -0.3498 0.6299
v  -4.0611 0.3498 0.6299
v  -4.4810 0.0930 -0.1372
v  -4.4810 -0.0930 -0.1372
v  -4.4810 -0.1861 0.0239
v  -4.4810 0.0930 0.1851
v  -4.4810 -0.0930 0.1851
v  -4.4810 0.1861 0.0239
# 36 vertices

vn 0.8000 0.5196 -0.3000
vn -0.0497 0.5012 -0.8639
vn -0.0497 0.9988 -0.0022
vn -0.1718 0.0000 -0.9851
vn -0.0497 -0.5012 -0.8639
vn 0.8000 -0.5196 -0.3000
vn -0.0497 -0.9988 -0.0022
vn -0.1718 -0.8531 0.4926
vn -0.0497 -0.4975 0.8660
vn 0.8000 0.0000 0.6000
vn -0.0497 0.4975 0.8660
vn -0.1718 0.8531 0.4926
vn -0.1100 0.4970 -0.8608
vn -0.1100 0.9939 -0.0000
vn -0.1100 -0.4970 -0.8608
vn -0.1100 -0.9939 0.0000
vn -0.1100 -0.4970 0.8608
vn -0.1100 0.4970 0.8608
vn -0.4868 0.4368 -0.7565
vn -0.4868 0.8735 -0.0000
vn -0.4868 -0.4368 -0.7565
vn -0.4868 -0.8735 0.0000
vn -0.4868 -0.4368 0.7565
vn -0.4868 0.4368 0.7565
vn -0.9043 0.2135 -0.3697
vn -0.9043 -0.2135 -0.3697
vn -0.9043 -0.4269 0.0000
vn -0.9043 0.2135 0.3697
vn -0.9043 -0.2135 0.3697
vn -0.9043 0.4269 -0.0000
vn -0.0000 1.0000 -0.0000
vn 1.0000 0.0000 -0.0000
vn 0.0000 -1.0000 0.0000
vn 0.0000 -0.5000 -0.8660
vn -0.0000 0.5000 0.8660
vn -0.0000 0.5000 -0.8660
vn 0.0000 -0.5000 0.8660
# 37 vertex normals

vt 0.7639 0.0205 -2.5279
vt 0.8428 0.0205 2.5279
vt 0.8428 0.5686 2.5279
vt 0.7639 0.5686 -2.5279
vt 0.1875 0.9785 -2.5279
vt 0.1098 0.9924 -2.5279
vt 0.0122 0.4447 -2.5279
vt 0.0899 0.4308 2.5279
vt 0.3828 0.3804 2.5279
vt 0.4618 0.3804 -2.5279
vt 0.4618 0.9284 -2.5279
vt 0.3828 0.9284 2.5279
vt 0.1935 0.3879 -2.5279
vt 0.2713 0.3744 -2.5279
vt 0.3669 0.9224 2.5279
vt 0.2891 0.9360 -2.5279
vt 0.7097 0.2821 0.0000
vt 0.7097 0.3610 0.0000
vt 0.1616 0.3610 0.0000
vt 0.1616 0.2821 0.0000
vt 0.5723 0.3825 -2.5279
vt 0.6501 0.3961 -2.5279
vt 0.5545 0.9441 -2.5279
vt 0.4767 0.9306 2.5279
vt 0.1362 0.0086 -0.0338
vt 0.2202 0.0086 0.0338
vt 0.2202 0.2755 0.0338
vt 0.1362 0.2755 -0.0338
vt 0.2907 0.0086 0.0338
vt 0.2907 0.2755 0.0338
vt 0.3748 0.0086 -0.0338
vt 0.3748 0.2755 -0.0338
vt 0.4588 0.0086 0.0338
vt 0.4588 0.2755 0.0338
vt 0.5293 0.0086 0.0338
vt 0.5293 0.2755 0.0338
vt 0.0521 0.0086 0.0338
vt 0.0521 0.2755 0.0338
vt 0.6748 0.9569 0.0000
vt 0.6876 0.9338 0.0000
vt 0.7750 0.9300 0.0000
vt 0.7927 0.9575 0.0000
vt 0.6109 0.8656 0.0000
vt 0.6372 0.8635 0.0000
vt 0.6507 0.7546 0.0000
vt 0.6685 0.7821 0.0000
vt 0.7685 0.7553 0.0000
vt 0.7558 0.7784 0.0000
vt 0.8324 0.8465 0.0000
vt 0.8061 0.8485 0.0000
vt 0.8356 0.6240 0.0000
vt 0.9041 0.6693 0.0000
vt 0.9091 0.7513 0.0000
vt 0.7769 0.7428 0.0000
vt 0.8454 0.7880 0.0000
vt 0.7719 0.6608 0.0000
vt 0.7100 0.8734 0.0000
vt 0.7011 0.8521 0.0000
vt 0.7130 0.8338 0.0000
vt 0.7427 0.8593 0.0000
vt 0.7327 0.8383 0.0000
vt 0.7305 0.8786 0.0000
vt 0.2774 0.9458 2.5279
vt 0.9604 0.8403 0.0000
vt 0.8968 0.8770 0.0000
vt 0.0142 0.9927 -2.5279
vt 0.1036 0.4203 -2.5279
vt 0.8766 0.5410 0.0000
vt 0.9452 0.5863 0.0000
vt 0.3669 0.3744 2.5279
vt 0.7401 0.4284 -2.5279
vt 0.4767 0.3825 2.5279
vt 0.6845 0.7368 0.0000
vt 0.6795 0.6548 0.0000
# 74 texture coords

g sharkmissile
usemtl Material__2
s 9
f 1/1/1 2/2/1 3/3/2 4/4/3 
s 8
f 5/5/4 6/6/4 7/7/5 3/8/2 
s 9
f 8/9/6 9/10/6 10/11/7 7/12/5 
s 8
f 11/13/8 12/14/8 13/15/9 10/16/7 
s 9
f 14/17/10 15/18/10 16/19/11 13/20/9 
s 8
f 17/21/12 18/22/12 4/23/3 16/24/11 
s 9
f 4/25/3 3/26/2 19/27/13 20/28/14 
f 3/26/2 7/29/5 21/30/15 19/27/13 
f 7/29/5 10/31/7 22/32/16 21/30/15 
f 10/31/7 13/33/9 23/34/17 22/32/16 
f 13/33/9 16/35/11 24/36/18 23/34/17 
f 16/37/11 4/25/3 20/28/14 24/38/18 
f 19/39/13 25/40/19 26/41/20 20/42/14 
f 21/43/15 27/44/21 25/40/19 19/39/13 
f 22/45/16 28/46/22 27/44/21 21/43/15 
f 23/47/17 29/48/23 28/46/22 22/45/16 
f 24/49/18 30/50/24 29/48/23 23/47/17 
f 20/42/14 26/41/20 30/50/24 24/49/18 
s 1
f 14/51/10 9/52/6 8/53/6 1/54/1 
f 8/53/6 2/55/1 1/54/1 
f 15/56/10 14/51/10 1/54/1 
f 31/57/25 32/58/26 33/59/27 34/60/28 
f 33/59/27 35/61/29 34/60/28 
f 36/62/30 31/57/25 34/60/28 
s 9
f 31/57/25 36/62/30 26/41/20 25/40/19 
f 32/58/26 31/57/25 25/40/19 27/44/21 
f 33/59/27 32/58/26 27/44/21 28/46/22 
f 35/61/29 33/59/27 28/46/22 29/48/23 
f 34/60/28 35/61/29 29/48/23 30/50/24 
f 36/62/30 34/60/28 30/50/24 26/41/20 
s off
f 3/8/31 2/63/31 5/5/31 
f 2/55/32 8/53/32 6/64/32 5/65/32 
f 8/66/33 7/7/33 6/6/33 
f 10/16/34 9/67/34 11/13/34 
f 9/52/32 14/51/32 12/68/32 11/69/32 
f 14/70/35 13/15/35 12/14/35 
f 1/71/36 4/23/36 18/22/36 
f 16/24/37 15/72/37 17/21/37 
f 15/56/32 1/54/32 18/73/32 17/74/32 
# 29 polygons - 10 triangles

