# 3ds Max Wavefront OBJ Exporter v0.97b - (c)2007 guruware
# File Created: 27.01.2016 10:04:43

mtllib blastertrigger001.mtl

#
# object trigger
#

v  0.4630 6.9809 11.4053
v  0.4630 6.9809 11.2399
v  1.2258 6.9809 11.2399
v  1.2258 6.9809 11.4053
v  1.2258 7.7262 10.7948
v  0.4630 7.7262 10.7948
v  1.2258 7.7262 10.4208
v  0.4630 7.7262 10.4208
v  1.2258 9.8461 10.9889
v  0.4630 9.8461 10.9889
v  0.4630 8.5258 10.6399
v  1.2258 8.5258 10.6399
v  1.2258 8.5258 10.0421
v  1.2258 9.8461 10.0217
v  0.4630 9.8461 10.0217
v  0.4630 8.5258 10.0421
# 16 vertices

vn 0.0000 -1.0000 -0.0000
vn -0.0000 0.6337 0.7736
vn -0.0000 0.4249 0.9052
vn 0.0000 0.6337 0.7736
vn 1.0000 -0.0000 -0.0000
vn 1.0000 0.0000 -0.0000
vn 0.0000 -0.7396 -0.6730
vn 0.0000 -0.5951 -0.8036
vn -1.0000 0.0000 0.0000
vn -1.0000 0.0000 -0.0000
vn 0.0000 -0.2556 0.9668
vn 0.0000 -0.0335 0.9994
vn -0.0000 -0.0335 0.9994
vn 0.0000 -0.0155 -0.9999
vn 0.0000 -0.2269 -0.9739
# 15 vertex normals

vt 0.6793 0.7904 0.0000
vt 0.6793 0.7958 0.0000
vt 0.6543 0.7958 0.0000
vt 0.6543 0.7904 0.0000
vt 0.4178 0.7041 0.0000
vt 0.4178 0.7357 0.0000
vt 0.3928 0.7357 0.0000
vt 0.3928 0.7041 0.0000
vt 0.6807 0.0879 0.0000
vt 0.7075 0.1123 0.0000
vt 0.6953 0.1123 0.0000
vt 0.6753 0.0879 0.0000
vt 0.8559 0.1768 0.0000
vt 0.8559 0.2131 0.0000
vt 0.8308 0.2131 0.0000
vt 0.8308 0.1768 0.0000
vt 0.8725 0.3343 0.0000
vt 0.8779 0.3343 0.0000
vt 0.8579 0.3587 0.0000
vt 0.8457 0.3587 0.0000
vt 0.4178 0.8072 0.0000
vt 0.3928 0.8072 0.0000
vt 0.3928 0.7624 0.0000
vt 0.4178 0.7624 0.0000
vt 0.7199 0.1385 0.0000
vt 0.7206 0.1818 0.0000
vt 0.6889 0.1818 0.0000
vt 0.7003 0.1385 0.0000
vt 0.8559 0.2854 0.0000
vt 0.8308 0.2854 0.0000
vt 0.8308 0.2421 0.0000
vt 0.8559 0.2421 0.0000
vt 0.8643 0.4282 0.0000
vt 0.8326 0.4282 0.0000
vt 0.8333 0.3849 0.0000
vt 0.8529 0.3849 0.0000
# 36 texture coords

g trigger
usemtl Material__26
s 2
f 1/1/1 2/2/1 3/3/1 4/4/1 
s 8
f 4/5/2 5/6/3 6/7/3 1/8/4 
s 16
f 3/9/5 7/10/6 5/11/5 4/12/5 
s 32
f 2/13/7 8/14/8 7/15/8 3/16/7 
s 64
f 2/17/9 1/18/10 6/19/9 8/20/9 
s 8
f 9/21/11 10/22/11 11/23/12 12/24/13 
s 16
f 13/25/6 14/26/6 9/27/6 12/28/6 
s 32
f 15/29/14 14/30/14 13/31/15 16/32/15 
s 64
f 10/33/10 15/34/10 16/35/10 11/36/9 
s 8
f 12/24/13 11/23/12 6/7/3 5/6/3 
s 16
f 7/10/6 13/25/6 12/28/6 5/11/5 
s 32
f 16/32/15 13/31/15 7/15/8 8/14/8 
s 64
f 11/36/9 16/35/10 8/20/9 6/19/9 
# 13 polygons

