# 3ds Max Wavefront OBJ Exporter v0.97b - (c)2007 guruware
# File Created: 25.01.2016 20:19:09

mtllib turret_projectile.mtl

#
# object GeoSphere001
#

v  -0.0501 0.7641 -0.0016
v  0.4972 0.6368 -0.0009
v  -0.3931 0.6359 -0.3415
v  0.8048 0.2154 0.0378
v  0.2978 0.4759 -0.5628
v  -0.5375 0.2327 -0.6175
v  0.7651 -0.2717 0.0180
v  0.5224 -0.4311 -0.4200
v  0.0819 -0.4279 -0.6605
v  -0.4284 -0.2611 -0.6388
v  -0.2393 0.6315 0.4418
v  -0.7229 0.3989 0.0144
v  -0.4003 0.1513 0.6706
v  -0.6179 -0.4306 -0.2469
v  -0.6331 -0.4852 0.2949
v  -0.4205 -0.3705 0.7425
v  0.3671 0.3833 0.4983
v  0.0666 -0.4862 0.6884
v  0.5229 -0.4347 0.3855
v  0.1687 -0.7740 -0.0703
# 20 vertices

vn 0.0089 0.9984 -0.0567
vn 0.5578 0.8298 0.0133
vn -0.3756 0.8332 -0.4059
vn 0.9683 0.2446 0.0501
vn 0.3781 0.5294 -0.7595
vn -0.5841 0.2365 -0.7765
vn 0.9222 -0.3863 0.0170
vn 0.6791 -0.4686 -0.5650
vn 0.0944 -0.4879 -0.8678
vn -0.4485 -0.3685 -0.8143
vn -0.2317 0.7750 0.5880
vn -0.9061 0.4154 0.0799
vn -0.4409 0.2676 0.8567
vn -0.7578 -0.5772 -0.3042
vn -0.7693 -0.5896 0.2461
vn -0.4450 -0.3600 0.8200
vn 0.4666 0.4317 0.7720
vn 0.1978 -0.5401 0.8180
vn 0.6860 -0.4961 0.5323
vn 0.1554 -0.9845 -0.0813
# 20 vertex normals

vt 0.3832 0.8668 0.0000
vt 0.4199 0.6536 0.0000
vt 0.5961 0.9053 0.0000
vt 0.5446 0.5662 0.0000
vt 0.5834 0.7267 -0.0000
vt 0.7209 0.8180 0.0000
vt 0.6694 0.4788 0.0000
vt 0.7724 0.5256 0.0000
vt 0.8370 0.6178 0.0000
vt 0.8457 0.7306 0.0000
vt 0.0307 0.3633 0.0000
vt 0.0673 0.1501 0.0000
vt 0.2436 0.4018 0.0000
vt 0.7596 0.9785 -0.0000
vt 0.2308 0.2232 -0.0000
vt 0.3684 0.3145 0.0000
vt 0.9487 0.7773 0.0000
vt 0.4198 0.0221 0.0000
vt 0.4844 0.1143 0.0000
vt 0.4931 0.2271 0.0000
vt 0.2069 0.6151 0.0000
vt 0.4071 0.4749 -0.0000
vt 0.5961 0.2738 0.0000
vt 0.6607 0.3661 0.0000
vt 0.8696 0.3387 -0.0000
# 25 texture coords

g GeoSphere001
usemtl mat_projectile
s 1
f 1/1/1 2/2/2 3/3/3 
f 2/2/2 4/4/4 5/5/5 
f 2/2/2 5/5/5 3/3/3 
f 3/3/3 5/5/5 6/6/6 
f 4/4/4 7/7/7 8/8/8 
f 4/4/4 8/8/8 5/5/5 
f 5/5/5 8/8/8 9/9/9 
f 5/5/5 9/9/9 6/6/6 
f 6/6/6 9/9/9 10/10/10 
f 1/11/1 3/12/3 11/13/11 
f 3/3/3 6/6/6 12/14/12 
f 3/12/3 12/15/12 11/13/11 
f 11/13/11 12/15/12 13/16/13 
f 6/6/6 10/10/10 14/17/14 
f 6/6/6 14/17/14 12/14/12 
f 12/15/12 14/18/14 15/19/15 
f 12/15/12 15/19/15 13/16/13 
f 13/16/13 15/19/15 16/20/16 
f 1/21/1 11/13/11 2/2/2 
f 11/13/11 13/16/13 17/22/17 
f 11/13/11 17/22/17 2/2/2 
f 2/2/2 17/22/17 4/4/4 
f 13/16/13 16/20/16 18/23/18 
f 13/16/13 18/23/18 17/22/17 
f 17/22/17 18/23/18 19/24/19 
f 17/22/17 19/24/19 4/4/4 
f 4/4/4 19/24/19 7/7/7 
f 7/7/7 19/24/19 8/8/8 
f 19/24/19 18/23/18 20/25/20 
f 19/24/19 20/25/20 8/8/8 
f 8/8/8 20/25/20 9/9/9 
f 18/23/18 16/20/16 15/19/15 
f 18/23/18 15/19/15 20/25/20 
f 20/25/20 15/19/15 14/18/14 
f 20/25/20 14/17/14 9/9/9 
f 9/9/9 14/17/14 10/10/10 
# 0 polygons - 36 triangles

