# 3ds Max Wavefront OBJ Exporter v0.97b - (c)2007 guruware
# File Created: 24.02.2016 22:39:34

mtllib barracudaacid001.mtl

#
# object barracudaacid
#

v  -4.4288 0.0056 -3.7567
v  -4.4288 1.6356 -3.3847
v  -2.9269 1.2819 -2.6502
v  -2.9269 0.0056 -2.9415
v  -4.4288 2.9427 -2.3423
v  -2.9269 2.3054 -1.8340
v  -4.4288 3.6682 -0.8360
v  -2.9269 2.8734 -0.6546
v  -4.4288 3.6682 0.8360
v  -2.9269 2.8734 0.6546
v  -4.4288 2.9427 2.3423
v  -2.9269 2.3054 1.8340
v  -4.4288 1.6356 3.3847
v  -2.9269 1.2819 2.6502
v  -4.4288 0.0056 3.7567
v  -2.9269 0.0056 2.9415
v  -4.4288 -1.6244 3.3847
v  -2.9269 -1.2707 2.6502
v  -4.4288 -2.9315 2.3423
v  -2.9269 -2.2942 1.8340
v  -4.4288 -3.6570 0.8360
v  -2.9269 -2.8622 0.6546
v  -4.4288 -3.6570 -0.8360
v  -2.9269 -2.8622 -0.6546
v  -4.4288 -2.9315 -2.3423
v  -2.9269 -2.2942 -1.8340
v  -4.4288 -1.6244 -3.3847
v  -2.9269 -1.2707 -2.6502
v  -1.9827 0.0056 -2.7476
v  -1.9827 1.1977 -2.4755
v  -0.8842 0.9390 -1.9383
v  -0.8842 0.0056 -2.1513
v  -1.9827 2.1537 -1.7131
v  -0.8842 1.6876 -1.3413
v  -1.9827 2.6843 -0.6114
v  -0.8842 2.1030 -0.4787
v  -1.9827 2.6843 0.6114
v  -0.8842 2.1030 0.4787
v  -1.9827 2.1537 1.7131
v  -0.8842 1.6876 1.3413
v  -1.9827 1.1977 2.4755
v  -0.8842 0.9390 1.9383
v  -1.9827 0.0056 2.7476
v  -0.8842 0.0056 2.1513
v  -1.9827 -1.1865 2.4755
v  -0.8842 -0.9278 1.9383
v  -1.9827 -2.1425 1.7131
v  -0.8842 -1.6764 1.3413
v  -1.9827 -2.6731 0.6114
v  -0.8842 -2.0918 0.4787
v  -1.9827 -2.6731 -0.6114
v  -0.8842 -2.0918 -0.4787
v  -1.9827 -2.1425 -1.7131
v  -0.8842 -1.6764 -1.3413
v  -1.9827 -1.1865 -2.4755
v  -0.8842 -0.9278 -1.9383
v  0.1564 0.0056 -1.8896
v  0.1564 0.8255 -1.7025
v  0.9119 0.6476 -1.3330
v  0.9119 0.0056 -1.4796
v  0.1564 1.4830 -1.1782
v  0.9119 1.1624 -0.9225
v  0.1564 1.8478 -0.4205
v  0.9119 1.4481 -0.3292
v  0.1564 1.8478 0.4205
v  0.9119 1.4481 0.3292
v  0.1564 1.4830 1.1782
v  0.9119 1.1624 0.9225
v  0.1564 0.8255 1.7025
v  0.9119 0.6476 1.3330
v  0.1564 0.0056 1.8896
v  0.9119 0.0056 1.4796
v  0.1564 -0.8143 1.7025
v  0.9119 -0.6364 1.3331
v  0.1564 -1.4718 1.1782
v  0.9119 -1.1512 0.9225
v  0.1564 -1.8366 0.4205
v  0.9119 -1.4369 0.3292
v  0.1564 -1.8366 -0.4205
v  0.9119 -1.4369 -0.3292
v  0.1564 -1.4718 -1.1782
v  0.9119 -1.1512 -0.9225
v  0.1564 -0.8143 -1.7025
v  0.9119 -0.6364 -1.3331
# 84 vertices

vn 0.4770 0.0000 -0.8789
vn 0.4770 0.3813 -0.7918
vn 0.4770 0.6871 -0.5480
vn 0.4770 0.8568 -0.1956
vn 0.4770 0.8568 0.1956
vn 0.4770 0.6871 0.5480
vn 0.4770 0.3813 0.7918
vn 0.4770 0.0000 0.8789
vn 0.4770 -0.3813 0.7918
vn 0.4770 -0.6871 0.5480
vn 0.4770 -0.8568 0.1956
vn 0.4770 -0.8568 -0.1956
vn 0.4770 -0.6871 -0.5480
vn 0.4770 -0.3813 -0.7918
# 14 vertex normals

vt 0.4257 0.0207 0.0000
vt 0.5416 0.0328 0.0000
vt 0.5167 0.1493 0.0000
vt 0.4260 0.1398 0.0000
vt 0.6524 0.0691 0.0000
vt 0.6034 0.1777 0.0000
vt 0.7529 0.1280 0.0000
vt 0.6822 0.2238 0.0000
vt 0.8388 0.2068 0.0000
vt 0.7494 0.2855 0.0000
vt 0.9061 0.3019 0.0000
vt 0.8021 0.3600 0.0000
vt 0.9518 0.4091 0.0000
vt 0.8379 0.4439 0.0000
vt 0.9738 0.5236 0.0000
vt 0.8551 0.5335 0.0000
vt 0.9712 0.6401 0.0000
vt 0.8531 0.6248 0.0000
vt 0.9440 0.7534 0.0000
vt 0.8318 0.7135 0.0000
vt 0.8936 0.8584 0.0000
vt 0.7923 0.7957 0.0000
vt 0.0134 0.2085 0.0000
vt 0.0990 0.1293 0.0000
vt 0.1701 0.2249 0.0000
vt 0.1031 0.2868 0.0000
vt 0.1993 0.0700 0.0000
vt 0.2487 0.1784 0.0000
vt 0.3099 0.0333 0.0000
vt 0.3353 0.1496 0.0000
vt 0.0892 0.6329 -2.2322
vt 0.0709 0.5497 -2.2322
vt 0.1575 0.5402 -2.2322
vt 0.1718 0.6054 -2.2322
vt 0.0707 0.4644 -2.2322
vt 0.1573 0.4735 -2.2322
vt 0.0885 0.3811 -2.2322
vt 0.1713 0.4082 -2.2322
vt 0.1234 0.3033 2.2322
vt 0.1986 0.3473 -2.2322
vt 0.7789 0.7623 2.2322
vt 0.7178 0.8217 -2.2322
vt 0.6640 0.7532 -2.2322
vt 0.7119 0.7067 -2.2322
vt 0.6456 0.8670 -2.2322
vt 0.6075 0.7886 -2.2322
vt 0.5654 0.8959 -2.2322
vt 0.5447 0.8113 -2.2322
vt 0.4810 0.9072 -2.2322
vt 0.4786 0.8202 -2.2322
vt 0.3960 0.9005 -2.2322
vt 0.4120 0.8149 -2.2322
vt 0.3144 0.8760 -2.2322
vt 0.3481 0.7957 -2.2322
vt 0.2398 0.8348 -2.2322
vt 0.2897 0.7635 -2.2322
vt 0.1755 0.7788 -2.2322
vt 0.2394 0.7196 -2.2322
vt 0.1246 0.7105 -2.2322
vt 0.1995 0.6661 -2.2322
vt 0.6585 0.3857 -0.7521
vt 0.7016 0.4254 -0.7521
vt 0.6565 0.4649 -0.7521
vt 0.6228 0.4338 -0.7521
vt 0.7353 0.4733 -0.7521
vt 0.6830 0.5024 -0.7521
vt 0.7582 0.5273 -0.7521
vt 0.7009 0.5447 -0.7521
vt 0.7692 0.5849 0.7521
vt 0.7095 0.5898 -0.7521
vt 0.2188 0.5849 0.7521
vt 0.2298 0.5273 -0.7521
vt 0.2871 0.5447 -0.7521
vt 0.2786 0.5898 -0.7521
vt 0.2527 0.4733 -0.7521
vt 0.3051 0.5024 -0.7521
vt 0.2864 0.4254 -0.7521
vt 0.3315 0.4649 -0.7521
vt 0.3296 0.3857 -0.7521
vt 0.3652 0.4338 -0.7521
vt 0.3801 0.3560 -0.7521
vt 0.4048 0.4105 -0.7521
vt 0.4357 0.3376 -0.7521
vt 0.4484 0.3961 -0.7521
vt 0.4940 0.3313 -0.7521
vt 0.4940 0.3913 -0.7521
vt 0.5523 0.3376 -0.7521
vt 0.5397 0.3961 -0.7521
vt 0.6080 0.3560 -0.7521
vt 0.5832 0.4105 -0.7521
# 90 texture coords

g barracudaacid
usemtl wire_184155229
s 8
f 1/1/1 2/2/2 3/3/2 4/4/1 
f 2/2/2 5/5/3 6/6/3 3/3/2 
f 5/5/3 7/7/4 8/8/4 6/6/3 
f 7/7/4 9/9/5 10/10/5 8/8/4 
f 9/9/5 11/11/6 12/12/6 10/10/5 
f 11/11/6 13/13/7 14/14/7 12/12/6 
f 13/13/7 15/15/8 16/16/8 14/14/7 
f 15/15/8 17/17/9 18/18/9 16/16/8 
f 17/17/9 19/19/10 20/20/10 18/18/9 
f 19/19/10 21/21/11 22/22/11 20/20/10 
f 21/23/11 23/24/12 24/25/12 22/26/11 
f 23/24/12 25/27/13 26/28/13 24/25/12 
f 25/27/13 27/29/14 28/30/14 26/28/13 
f 27/29/14 1/1/1 4/4/1 28/30/14 
f 29/31/1 30/32/2 31/33/2 32/34/1 
f 30/32/2 33/35/3 34/36/3 31/33/2 
f 33/35/3 35/37/4 36/38/4 34/36/3 
f 35/37/4 37/39/5 38/40/5 36/38/4 
f 37/41/5 39/42/6 40/43/6 38/44/5 
f 39/42/6 41/45/7 42/46/7 40/43/6 
f 41/45/7 43/47/8 44/48/8 42/46/7 
f 43/47/8 45/49/9 46/50/9 44/48/8 
f 45/49/9 47/51/10 48/52/10 46/50/9 
f 47/51/10 49/53/11 50/54/11 48/52/10 
f 49/53/11 51/55/12 52/56/12 50/54/11 
f 51/55/12 53/57/13 54/58/13 52/56/12 
f 53/57/13 55/59/14 56/60/14 54/58/13 
f 55/59/14 29/31/1 32/34/1 56/60/14 
f 57/61/1 58/62/2 59/63/2 60/64/1 
f 58/62/2 61/65/3 62/66/3 59/63/2 
f 61/65/3 63/67/4 64/68/4 62/66/3 
f 63/67/4 65/69/5 66/70/5 64/68/4 
f 65/71/5 67/72/6 68/73/6 66/74/5 
f 67/72/6 69/75/7 70/76/7 68/73/6 
f 69/75/7 71/77/8 72/78/8 70/76/7 
f 71/77/8 73/79/9 74/80/9 72/78/8 
f 73/79/9 75/81/10 76/82/10 74/80/9 
f 75/81/10 77/83/11 78/84/11 76/82/10 
f 77/83/11 79/85/12 80/86/12 78/84/11 
f 79/85/12 81/87/13 82/88/13 80/86/12 
f 81/87/13 83/89/14 84/90/14 82/88/13 
f 83/89/14 57/61/1 60/64/1 84/90/14 
# 42 polygons

